<svg width="24" height="29" viewBox="0 0 24 29" fill="none" xmlns="http://www.w3.org/2000/svg">
<path d="M1.56488 19.6249L1.56484 19.6247C1.46748 19.1157 1.55019 18.5881 1.79913 18.1341C2.04813 17.68 2.44804 17.3277 2.92987 17.1408L2.93038 17.1406L3.57093 16.893L1.56488 19.6249ZM1.56488 19.6249L2.11254 22.481L2.11255 22.481C2.21649 23.023 2.4717 23.5242 2.84884 23.9251C3.22604 24.3261 3.70948 24.61 4.24236 24.7424L4.24243 24.7424L14.5574 27.3028C15.8122 27.6143 17.1375 27.4114 18.2445 26.7391C19.3512 26.0669 20.1494 24.9807 20.4676 23.718L20.4676 23.7179L22.3811 16.1189L22.3811 16.1188C22.4885 15.6921 22.4981 15.2462 22.4093 14.8152C22.3205 14.3841 22.1355 13.9789 21.868 13.6304C21.6005 13.282 21.2575 12.9995 20.8649 12.805C20.4722 12.6105 20.0405 12.5092 19.6028 12.5093C19.6028 12.5093 19.6028 12.5093 19.6027 12.5093L15.7495 12.5093C15.7493 12.5093 15.7491 12.5093 15.7489 12.5093C15.6688 12.5091 15.5897 12.4897 15.5178 12.4524C15.4458 12.415 15.3829 12.3605 15.3347 12.2929C15.2866 12.2253 15.2546 12.1466 15.242 12.0632C15.2293 11.9799 15.2364 11.8947 15.2626 11.8148C16.1532 9.10127 16.618 7.04826 16.618 5.7512C16.618 4.52471 16.3937 3.50527 15.9726 2.77353C15.5452 2.0308 14.8902 1.55576 14.0802 1.55576C13.9479 1.55576 13.854 1.60746 13.8172 1.63005C13.7733 1.65692 13.7426 1.68498 13.7261 1.70116C13.6925 1.734 13.6699 1.76517 13.6587 1.78119C13.6341 1.81641 13.6148 1.85206 13.6007 1.88004C13.5709 1.93922 13.5382 2.01666 13.5018 2.11531C13.4284 2.31448 13.3281 2.6333 13.1973 3.13624L13.1964 3.13997C13.129 3.40753 13.0584 3.67423 12.9845 3.94002L12.9845 3.94024C12.8471 4.43517 12.6096 5.27558 12.2691 6.4591L12.2686 6.46078C12.2191 6.63501 12.1452 6.80138 12.0502 6.95097L12.0495 6.95209L8.17262 13.0943L8.1726 13.0943M1.56488 19.6249L8.1726 13.0943M13.6813 3.26201C13.6129 3.53355 13.5412 3.80421 13.4663 4.07394C13.3283 4.57096 13.0903 5.41301 12.7496 6.59735C12.6874 6.81642 12.5941 7.02728 12.4724 7.21897L13.6813 3.26201ZM13.6813 3.26201C13.9382 2.27346 14.064 2.05576 14.0802 2.05576C15.2539 2.05576 16.118 3.40304 16.118 5.7512C16.118 6.96156 15.6772 8.94825 14.7874 11.6592L13.6813 3.26201ZM8.1726 13.0943C7.07895 14.8273 5.46588 16.1583 3.57135 16.8928L8.1726 13.0943ZM11.998 3.65226L11.9981 3.65157C12.0523 3.45608 12.1034 3.26024 12.2047 2.86374C12.4541 1.9044 12.6773 1.31662 12.9585 0.963473C13.2004 0.659717 13.5089 0.50061 14.0815 0.50061C15.162 0.50061 16.0315 1.00646 16.6494 1.90532C17.2773 2.81883 17.6478 4.14875 17.6478 5.7512C17.6478 6.92104 17.3284 8.58828 16.6614 10.8118L16.4683 11.4555H17.1403H19.6041H19.6043C20.1967 11.4553 20.7816 11.5923 21.3144 11.8561C21.8471 12.12 22.3139 12.5039 22.6786 12.9791C23.0433 13.4543 23.2963 14.008 23.4178 14.5981C23.5393 15.1882 23.526 15.7986 23.3789 16.3827L23.8637 16.5048L23.3789 16.3827L21.4654 23.9817C21.0789 25.5166 20.1099 26.8332 18.7715 27.6464C17.4332 28.4594 15.833 28.7042 14.3182 28.3285L4.00329 25.7681L4.00325 25.7681C3.28133 25.589 2.62439 25.2039 2.11058 24.6577C1.59675 24.1113 1.24767 23.4267 1.10553 22.6845C1.10552 22.6844 1.10552 22.6844 1.10551 22.6844L0.559218 19.8284L0.559182 19.8282C0.414393 19.0728 0.537298 18.2901 0.905641 17.6181C1.27389 16.9463 1.86336 16.4288 2.56923 16.155C2.56928 16.155 2.56933 16.1549 2.56938 16.1549L3.20885 15.9072L3.2089 15.9071C4.90012 15.2517 6.33786 14.0646 7.31171 12.5217L7.31179 12.5216L11.1852 6.38066C11.228 6.31352 11.2611 6.2407 11.2835 6.16442L11.2843 6.16164C11.6224 4.9839 11.8608 4.1444 11.998 3.65226Z" fill="#5E5E75" stroke="#5E5E75"/>
</svg>
